. 
  
http://www.torrenting.com/        :     Greatest Movie Tracker on The Net!!!
 
http://www.Torrenting.com          :     Once & For all ;)


               www . Torrenting . Com 

(((((((((((((= Enjoy No RAR releases =))))))))))))))))))))


...................................NFO:....................................

.
                                                     
                                                   
                                                         
                                                          
                                                           
                                                          
                                                          
                                                          
                                                           
                                                         
                                                          
                                                        
                                                      
                                     
                                                 
                                                   
                                             
                                              
                                                     
                                                      
                                                      
                                                      
                                                    
                                                     
                                                   
                                                     
                                                     
                                                      
                                                     
                                                      
                                                    
                 ARTiCHOKE                        
                                                
                      
                                                        
                                                      
                                                      
                                               
                                          
                                                   
                                            
                                                    
                                                       
                                                        
                                                      
                                                
                                                        
                                                 
                                              
                                                  
                                                
                                                  
                                        

      
                                
      SPRiNTER proudly presents...     
                                
      
 
 Barney.Mother.Goose.Collection.2011.DVDRip.XviD-SPRiNTER  http://www.amazon.com/Barney-Mother-Goose-Collection/dp/B004HGCNBM/ref=sr_1_1?ie=UTF8&qid=1300368502&sr=8-1
 Subtitles: N/A

 Date: 2011.03
 Genre: Cartoon | Kids


      
                 
      Release notes     
                 
      

 Enjoy!


      
          
       News      
          
      

 We are currently looking for:

 - Suppliers who can provide pre-retail or retail dvds with decent upload!
 - 50Mbit+ dump providers with 1TB+ free space.
 - Talented and dedicated xvid encoders.
 sprinter@hush.com


      
           
     Greetings    
           
      


NTX aAF FiCO HNR CiNEFiLE AEN HUMANiSM 0MNiDVD TASTE


      
           
      Details     
           
      

Format                           : AVI
Format/Info                      : Audio Video Interleave
File size                        : 351 MiB
Duration                         : 56mn 38s
Overall bit rate                 : 866 Kbps
Writing application              : VirtualDubMod 1.5.10.2 (build 2540/release)
Writing library                  : VirtualDubMod build 2540/release

Video
ID                               : 0
Format                           : MPEG-4 Visual
Format profile                   : Advanced Simple@L5
Format settings, BVOP            : Yes
Format settings, QPel            : No
Format settings, GMC             : No warppoints
Format settings, Matrix          : Default (H.263)
Codec ID                         : XVID
Codec ID/Hint                    : XviD
Duration                         : 56mn 38s
Bit rate                         : 716 Kbps
Width                            : 512 pixels
Height                           : 384 pixels
Display aspect ratio             : 4:3
Frame rate                       : 29.970 fps
Color space                      : YUV
Chroma subsampling               : 4:2:0
Bit depth                        : 8 bits
Scan type                        : Progressive
Bits/(Pixel*Frame)               : 0.121
Stream size                      : 290 MiB (83%)
Writing library                  : XviD 1.1.2 (UTC 2006-11-01)

Audio
ID                               : 1
Format                           : MPEG Audio
Format version                   : Version 1
Format profile                   : Layer 3
Codec ID                         : 55
Codec ID/Hint                    : MP3
Duration                         : 56mn 37s
Bit rate mode                    : Variable
Bit rate                         : 136 Kbps
Minimum bit rate                 : 128 Kbps
Channel(s)                       : 2 channels
Sampling rate                    : 48.0 KHz
Stream size                      : 55.1 MiB (16%)
Alignment                        : Aligned on interleaves
Interleave, duration             : 24 ms (0.72 video frame)
Interleave, preload duration     : 135 ms
Writing library                  : LAME3.95 
Encoding settings                : -m s -V 6 -q 3 -lowpass 16 --vbr-old -b 128